<svg width="42" height="36" viewBox="0 0 42 36" fill="none" xmlns="http://www.w3.org/2000/svg">
<path d="M36.1 14.2002C35.6 14.1002 35 14 34.4 14C33.2 14 31.9 14 30.6 14H29.7C29.5 15.6 28.9 16.9998 27.9 18.2998C30.7 19.4998 32.7 21.6001 33.7 24.6001C34.2 26.0001 34.2 27.3998 34.2 28.7998C34.3 28.7998 34.4 28.7998 34.6 28.7998C35.4 28.6998 36.1 28.6 36.9 28.5C38.6 28.2 40.2 27.8002 41.6 27.2002V20.5C41.6 20.4 41.5 20.3002 41.5 20.2002C41.1 17.3002 38.9 14.9002 36.1 14.2002Z" fill="#264F55"/>
<path d="M31.3001 28.8997C31.3001 27.6997 31.3001 26.6999 31.0001 25.5999C30.3001 22.7999 27.5001 20.5997 24.8001 20.3997C22.5001 20.2997 20.4001 20.2997 18.4001 20.3997C14.7001 20.5997 11.7001 23.5997 11.7001 27.3997C11.7001 28.7997 11.7001 30.0998 11.7001 31.4998V33.2996C11.7001 33.3996 11.7001 33.4999 11.7001 33.5999C11.8001 33.5999 11.9001 33.7 12.0001 33.7C17.2001 35.3 22.0001 35.6998 26.6001 34.9998C28.5001 34.6998 30.0001 34.2999 31.4001 33.5999C31.4001 32.7999 31.4001 32 31.4001 31.2V29.3997L31.3001 28.8997Z" fill="#264F55"/>
<path d="M13.2 14H12.4C10.8 14 9.20005 14 7.60005 14C7.30005 14 7.00004 14.1001 6.70004 14.1001C3.30004 14.7001 0.800049 17.7002 0.800049 21.2002C0.800049 22.1002 0.800049 23.1 0.800049 24C0.800049 25.1 0.800049 26.1002 0.800049 27.2002C3.30005 27.9002 5.40004 28.4001 7.40004 28.6001C7.90004 28.7001 8.30005 28.7002 8.80005 28.7002C8.60005 23.7002 10.7 20.2002 15 18.2002C14 17.1002 13.4 15.6 13.2 14Z" fill="#264F55"/>
<path d="M21.5 7.6001C24.5 7.6001 27 10.1001 27 13.1001C27 14.6001 26.4 15.9 25.4 17C24.4 18 23 18.6001 21.5 18.6001C18.5 18.6001 16 16.1001 16 13.1001C16 10.1001 18.5 7.6001 21.5 7.6001Z" fill="#264F55"/>
<path d="M31.7001 0.5C28.8001 0.5 26.4001 2.7 26.2001 5.5C28.1001 6.9 29.3001 8.7 29.7001 11C30.6001 11.3 31.4001 11.3999 32.2001 11.3999C35.2001 11.0999 37.3001 8.6001 37.2001 5.6001C37.1001 2.9001 34.6001 0.6 31.7001 0.5Z" fill="#264F55"/>
<path d="M11.3001 0.5C14.2001 0.5 16.6001 2.7 16.8001 5.5C14.9001 6.9 13.7001 8.7 13.3001 11C12.4001 11.3 11.6001 11.3999 10.8001 11.3999C7.80006 11.0999 5.70006 8.6001 5.80006 5.6001C5.90006 2.9001 8.40006 0.6 11.3001 0.5Z" fill="#264F55"/>
</svg>
