<svg width="25" height="25" viewBox="0 0 25 25" fill="none" xmlns="http://www.w3.org/2000/svg">
<path d="M21.2376 3.6999C16.3376 -1.2001 8.4376 -1.2001 3.6376 3.6999C-1.1624 8.5999 -1.2624 16.4999 3.6376 21.2999C8.5376 26.0999 16.4376 26.1999 21.2376 21.2999C23.5376 18.9999 24.9375 15.7999 24.8375 12.4999C24.9375 9.1999 23.6376 5.9999 21.2376 3.6999ZM18.8375 17.3999L18.2376 17.9999C17.4376 18.7999 16.2376 19.1999 15.1376 18.8999C14.0376 18.5999 12.9375 18.0999 11.9375 17.4999C11.0375 16.8999 10.1375 16.1999 9.43752 15.4999C8.73752 14.7999 8.1375 13.9999 7.5375 13.1999C6.9375 12.2999 6.4376 11.2999 6.1376 10.2999C5.7376 9.0999 6.03752 7.7999 6.93752 6.8999L7.6376 6.1999C7.8376 5.9999 8.13755 5.9999 8.33755 6.1999L10.6376 8.4999C10.8376 8.6999 10.8376 8.9999 10.6376 9.1999L9.23757 10.5999C8.83757 10.9999 8.8376 11.5999 9.1376 12.0999C9.6376 12.7999 10.1376 13.3999 10.7376 13.9999C11.4376 14.6999 12.1375 15.2999 12.9375 15.7999C13.3375 16.0999 14.0375 16.0999 14.3375 15.6999L15.6376 14.3999C15.8376 14.1999 16.1375 14.1999 16.3375 14.3999L18.6376 16.6999C19.0376 16.8999 19.0375 17.1999 18.8375 17.3999Z" fill="white"/>
</svg>
