<svg width="159" height="159" viewBox="0 0 159 159" fill="none" xmlns="http://www.w3.org/2000/svg">
<path d="M79.6 158.5C123.286 158.5 158.7 123.086 158.7 79.3999C158.7 35.7142 123.286 0.300049 79.6 0.300049C35.9143 0.300049 0.5 35.7142 0.5 79.3999C0.5 123.086 35.9143 158.5 79.6 158.5Z" fill="#25494C"/>
<path d="M78.8 115.9C77.7 115.9 76.5 115.4 75.7 114.6L44.4 83.3C42.6 81.5 42.6 78.8 44.4 77L77.2 44.2C78 43.4 79.1 42.8999 80.3 42.8999H111.6C112.8 42.8999 113.9 43.4 114.8 44.2C115.6 45 116 46.2 116 47.3V78.6001C116 79.7001 115.5 80.9 114.7 81.7L81.9 114.5C81.2 115.4 80 115.9 78.8 115.9ZM80.4 44.3999C79.6 44.3999 78.9 44.7 78.4 45.3L45.6 78.2C45 78.7999 44.7 79.5 44.7 80.3C44.7 81.1 45 81.7999 45.6 82.3999L76.9 113.7C77.5 114.3 78.2 114.6 79 114.6C79.8 114.6 80.5 114.3 81 113.7L113.8 80.8C114.3 80.3 114.7 79.5 114.7 78.7V47.3999C114.7 46.5999 114.5 45.9 113.9 45.3C113.4 44.7 112.6 44.3999 111.8 44.3999H80.4Z" fill="white"/>
<path d="M95.7999 68.8C92.6999 68.8 90.2 66.2 90.2 63.2C90.2 60.1 92.7999 57.6001 95.7999 57.6001C98.8999 57.6001 101.4 60.2 101.4 63.2C101.5 66.3 98.8999 68.8 95.7999 68.8ZM95.7999 59.1001C93.5999 59.1001 91.7 61 91.7 63.2C91.7 65.4 93.5999 67.3 95.7999 67.3C97.9999 67.3 99.9 65.4 99.9 63.2C99.9 61 98.0999 59.1001 95.7999 59.1001Z" fill="white"/>
<path d="M77.2 93.6001C76.3 93.8001 75.3 93.6999 74.3 93.3999C73.2 92.9999 72.2 92.3999 71.1 91.3999L68.7 93.8L67.9 93L70.3 90.6001C69.3 89.6001 68.6 88.4 68.1 87.2C67.6 86 67.3 84.8 67.4 83.8L68.6 83.5C68.6 84.5 68.8 85.5001 69.3 86.6001C69.8 87.7001 70.4 88.7 71.2 89.7L77.1 83.8C76.4 82.6 75.9 81.6 75.5 80.7C75.1 79.8 75 78.9 75.1 78C75.2 77.1 75.7 76.1999 76.5 75.3999C77.5 74.3999 78.8 73.8999 80.2 73.8999C81.7 73.8999 83.2 74.7001 84.7 76.1001L87.1 73.7L87.9 74.5L85.5 76.8999C86.2 77.6999 86.9 78.6 87.4 79.5C87.9 80.5 88.2 81.4 88.4 82.3L87.2 82.7C87 81.8 86.7 80.9 86.3 80C85.8 79.1 85.3 78.4 84.7 77.7L78.8 83.6001C79.6 84.9001 80.2 85.9999 80.5 86.8999C80.9 87.7999 81 88.7001 81 89.6001C80.9 90.5001 80.5 91.4 79.6 92.3C78.9 92.9 78.1 93.4001 77.2 93.6001ZM75.6 92.3C76.7 92.4 77.7 92.1 78.5 91.3C79.1 90.7 79.4 90 79.5 89.3C79.5 88.6 79.4 87.9 79.1 87.2C78.8 86.5 78.3 85.6001 77.8 84.6001L72.1 90.3C73.3 91.5 74.5 92.2 75.6 92.3ZM76.6 79.1001C76.8 80.1001 77.3 81.3 78.1 82.7L83.8 77C82.6 75.9 81.4 75.4 80.3 75.3C79.2 75.2 78.3 75.5999 77.5 76.3999C76.8 77.1999 76.4 78.1001 76.6 79.1001Z" fill="white" stroke="white" stroke-width="0.2581" stroke-miterlimit="10"/>
</svg>
