<svg width="159" height="159" viewBox="0 0 159 159" fill="none" xmlns="http://www.w3.org/2000/svg">
<path d="M79.3 158.5C122.986 158.5 158.4 123.086 158.4 79.3999C158.4 35.7142 122.986 0.300049 79.3 0.300049C35.6142 0.300049 0.199951 35.7142 0.199951 79.3999C0.199951 123.086 35.6142 158.5 79.3 158.5Z" fill="#25494C"/>
<path d="M79.3 115.9C78 115.9 76.8 115.4 75.7 114.4L74.9 113.7C74.2 113.1 73.5 112.4 72.9 111.8C72.1 111 71.1 110.7 69.9 111H69.7C68.6 111.3 67.5 111.6 66.4 111.9C63.1 112.8 60.7 111.5 59.5 108.3C59.1 107.2 58.7 106.1 58.4 105C58 103.7 57.2 103 55.9 102.8C55.5 102.7 55.2 102.6 54.8 102.6C54.3 102.5 53.8 102.4 53.3 102.3C51.2 102 49.8 101.2 48.9 99.8999C48 98.5999 47.9 96.8999 48.4 94.8999C49.2 91.4999 48.5 89.5 46 87.8C44.9 87.1 43.8 85.8999 43.1 84.3999C42.1 82.3999 43.1 80.5001 44.2 79.1001C44.5 78.7001 44.8 78.2999 45.1 77.8999C47.3 74.9999 47.3 75.0001 46.1 72.1001C45.9 71.5001 45.6 70.9001 45.3 70.1001C44 66.9001 44.9 64.4 47.9 62.8C48.6 62.4 49.3 62.0999 50 61.6999C50.4 61.4999 50.8 61.3001 51.2 61.1001C52.4 60.5001 52.9 59.6999 53 58.3999C53 57.2999 53.1 56.2999 53.2 55.1999L53.3 54.6001C53.6 51.5001 55.8 49.8 59.3 49.8C59.4 49.8 59.4 49.8 59.5 49.8C64.3 50.2 64.3 50.2001 66.2 47.1001C66.5 46.7001 66.8 46.1999 67.1 45.6999C69.1 42.5999 71.8 42 74.9 43.8L75.9 44.3999C76.6 44.7999 77.3 45.2001 78 45.6001C79 46.2001 79.8 46.2001 80.8 45.6001C81.9 44.9001 83 44.3001 84.3 43.6001C87 42.2001 89.7 42.8999 91.4 45.3999L91.7 45.8999C92.2 46.6999 92.8 47.5999 93.3 48.3999C94.1 49.6999 95 50.2001 96.3 50.1001C97.5 50.0001 98.6 49.8999 99.8 49.8999H99.9C103.1 49.8999 105.2 51.6999 105.5 54.8999V55.1999C105.6 56.2999 105.8 57.4 105.8 58.5C105.8 59.7 106.3 60.5001 107.5 61.1001C107.9 61.3001 108.3 61.4999 108.7 61.6999C109.4 61.9999 110.1 62.3999 110.8 62.6999C113.8 64.1999 114.7 66.9 113.5 70C113 71.1 112.6 72.2999 112.1 73.3999C111.7 74.3999 111.8 75.2999 112.4 76.1999C113 76.9999 113.6 77.8999 114.3 78.6999L114.7 79.3C116.6 81.8 116.3 84.5999 114 86.6999C112.9 87.6999 111.8 88.6 110.9 89.3C109.9 90.1 109.6 90.9999 109.8 92.1999C110 93.3999 110.2 94.8 110.4 96.3C110.7 99.2 109 101.4 106.2 102C105 102.2 103.9 102.5 102.7 102.7C101.3 103 100.5 103.7 100.2 104.9C100 105.7 99.7 106.4 99.4 107.2C99.3 107.5 99.2 107.9 99 108.2C97.9 111.3 95.5 112.6 92.3 111.9C91.3 111.7 90.3 111.4 89.4 111.1L88.7 110.9C87.4 110.6 86.4 110.8 85.5 111.7C84.6 112.6 83.6 113.5 82.7 114.4C81.8 115.5 80.6 115.9 79.3 115.9ZM70.9 109.4C72.1 109.4 73.1 109.9 74 110.7C74.6 111.3 75.3 112 76 112.6L76.8 113.3C78.3 114.7 80.3 114.7 81.9 113.4C82.8 112.6 83.8 111.7 84.7 110.8C86 109.5 87.5 109.1 89.3 109.6L90 109.8C91 110.1 91.9 110.3 92.9 110.6C95.4 111.2 96.9 110.3 97.8 107.9C97.9 107.6 98 107.2 98.2 106.9C98.5 106.2 98.7 105.4 98.9 104.7C99.4 102.9 100.7 101.8 102.6 101.4C103.8 101.2 104.9 100.9 106.1 100.7C108.2 100.2 109.3 98.7001 109.1 96.6001C108.9 95.1001 108.8 93.8001 108.6 92.6001C108.3 90.8001 108.8 89.2999 110.2 88.1999C111 87.4999 112.2 86.5999 113.2 85.6999C114.9 84.1999 115.1 82.2 113.7 80.3L113.3 79.6999C112.7 78.8999 112 77.9999 111.4 77.1999C110.4 75.8999 110.3 74.4 110.9 73C111.4 71.9 111.9 70.7001 112.3 69.6001C113.3 67.2001 112.6 65.3999 110.3 64.1999C109.6 63.7999 108.9 63.4999 108.2 63.1999C107.8 62.9999 107.4 62.8001 107 62.6001C105.3 61.8001 104.5 60.4999 104.5 58.6999C104.5 57.6999 104.4 56.6001 104.2 55.6001V55.3C103.9 52.8 102.5 51.6001 100.1 51.6001H100C98.9 51.6001 97.8 51.7 96.6 51.8C94.7 51.9 93.2 51.0999 92.2 49.3999C91.7 48.5999 91.2 47.7999 90.6 46.8999L90.3 46.3999C89.1 44.4999 87.2 44.0001 85.2 45.1001C84 45.8001 82.9 46.4 81.8 47C80.3 47.9 78.8 47.9 77.4 47C76.7 46.6 76 46.2 75.3 45.8L74.3 45.1999C71.9 43.7999 70.1 44.2999 68.5 46.6999C68.2 47.1999 67.9 47.7001 67.6 48.1001C65.3 51.8001 64.9 51.9 59.5 51.5C56.7 51.5 55.1 52.6 54.8 55L54.7 55.6001C54.6 56.6001 54.5 57.6001 54.5 58.6001C54.5 60.4001 53.6 61.8001 51.9 62.6001C51.5 62.8001 51.1 62.9999 50.7 63.1999C50 63.4999 49.3 63.8999 48.6 64.1999C46.3 65.3999 45.7 67.1001 46.7 69.6001C47 70.4001 47.3 71.0001 47.5 71.6001C49 75.1001 48.9 75.3999 46.4 78.8999C46.1 79.1999 45.9 79.6001 45.5 80.1001C44.3 81.7001 44 82.7999 44.6 83.8999C45.2 85.0999 46 86.0999 46.9 86.6999C50 88.6999 51 91.3999 50 95.3999C49.6 96.9999 49.7 98.2999 50.3 99.1999C50.9 100.1 52 100.7 53.7 100.9C54.3 101 54.8 101.1 55.3 101.2C55.7 101.3 56 101.4 56.4 101.4C58.3 101.8 59.5 102.9 60.1 104.7C60.4 105.7 60.8 106.8 61.2 107.9C62.1 110.3 63.7 111.2 66.3 110.5C67.4 110.2 68.5 109.9 69.6 109.6H69.8C70 109.5 70.4 109.4 70.9 109.4Z" fill="white"/>
<path d="M79.3 100.5C73.7 100.5 68.3999 98.3 64.3999 94.3C60.3999 90.3 58.2 85 58.2 79.2C58.2 73.6 60.3999 68.3 64.3999 64.3C68.3999 60.3 73.7 58.1001 79.3 58.1001C90.9 58.1001 100.4 67.6999 100.4 79.3999C100.4 91.0999 91 100.5 79.3 100.5ZM79.3 59.7C74.1 59.7 69.2 61.7 65.5 65.5C61.8 69.2 59.7 74.1 59.7 79.3C59.7 84.6 61.7 89.6 65.5 93.3C69.2 97 74.1 99 79.3 99C90.1 99 98.8999 90.2 98.8999 79.5H99.7H98.8999C98.8999 68.6 90.1 59.8 79.3 59.7ZM76.3999 92.8C75.4999 92.8 74.8 92.1001 74 91.1001C71.6 88.0001 68.9999 84.8 66.3999 81.5C64.5999 79.2 64.7 77.8 67 76C68.6 74.7 69.6 74.8001 71.1 76.1001C72.4 77.2001 73.7 78.4 75.1 79.5L76.3 80.5L77.3 79.3C78.4 78 79.5 76.8 80.6 75.5L81.1 74.8999C83.2 72.4999 85.4 70 87.5 67.5C88.6 66.2 89.9 66.0001 91.2 67.1001C92.9 68.4001 94 69.4999 92.8 71.3999C91.5 73.3999 90.1 75.3 88.7 77.2L87.8999 78.3C86.1999 80.7 84.5 83.0999 82.8 85.3999C81.5 87.1999 80.2 89 79 90.7C78.1 92 77.3999 92.8 76.3999 92.8ZM69 76.5C68.7 76.5 68.3999 76.7001 67.8999 77.1001C66.2999 78.4001 66.2 78.8 67.6 80.5C70.1 83.7 72.7 87.0001 75.2 90.1001C76 91.1001 76.3 91.2999 76.5 91.2C76.6 91.2 77 90.9999 77.8 89.8999C79.1 88.0999 80.4 86.3001 81.6 84.6001C83.3 82.2001 85 79.8 86.7 77.5L87.5 76.3999C88.9 74.4999 90.3 72.6001 91.6 70.6001C92.1 69.9001 92.1999 69.7 90.3999 68.3C89.6999 67.8 89.3 67.8 88.7 68.5C86.6 71 84.4 73.3999 82.3 75.8999L81.8 76.5C80.7 77.8 79.6 79 78.5 80.3L76.5 82.6001L74.2 80.6001C72.9 79.4001 71.6 78.3 70.2 77.2C69.6 76.7 69.3 76.5 69 76.5Z" fill="white"/>
</svg>
