<svg width="159" height="159" viewBox="0 0 159 159" fill="none" xmlns="http://www.w3.org/2000/svg">
<path d="M79.1 158.5C122.786 158.5 158.2 123.086 158.2 79.3999C158.2 35.7142 122.786 0.300049 79.1 0.300049C35.4143 0.300049 0 35.7142 0 79.3999C0 123.086 35.4143 158.5 79.1 158.5Z" fill="#25494C"/>
<path d="M115.7 79.3999H114.2C114.2 78.8999 114.2 78.3999 114.2 77.8999L115.7 77.8C115.7 78.4 115.7 78.8999 115.7 79.3999Z" fill="white"/>
<path d="M113.9 74.8999C113.8 73.8999 113.6 72.8999 113.4 71.8999L114.9 71.6001C115.1 72.6001 115.3 73.7 115.4 74.7L113.9 74.8999ZM112.6 68.8999C112.3 67.8999 111.9 67 111.6 66L113 65.3999C113.4 66.3999 113.8 67.3999 114.1 68.3999L112.6 68.8999ZM110.2 63.2C109.7 62.3 109.2 61.4 108.7 60.5L110 59.7C110.6 60.6 111.1 61.5 111.6 62.5L110.2 63.2ZM106.9 58.1001C106.3 57.3001 105.6 56.5 104.9 55.8L106 54.8C106.7 55.6 107.4 56.4 108.1 57.2L106.9 58.1001ZM102.8 53.6001C102.1 52.9001 101.3 52.3001 100.5 51.6001L101.4 50.3999C102.2 50.9999 103.1 51.7 103.8 52.5L102.8 53.6001ZM97.9999 49.8C97.0999 49.3 96.2999 48.7 95.2999 48.3L95.9999 47C96.8999 47.5 97.8999 48.0001 98.7999 48.6001L97.9999 49.8ZM92.4999 47C91.5999 46.6 90.6 46.3 89.6 46L90.1 44.6001C91.1 44.9001 92.1 45.3 93.1 45.7L92.4999 47ZM86.7 45.2C85.7 45 84.7 44.8 83.7 44.7L83.9 43.2C85 43.3 85.9999 43.5 86.9999 43.7L86.7 45.2Z" fill="white"/>
<path d="M80.6 44.3999C80.1 44.3999 79.6 44.3999 79.1 44.3999V42.8999C79.6 42.8999 80.1 42.8999 80.6 42.8999V44.3999Z" fill="white"/>
<path d="M79.1 115.9C59 115.9 42.6 99.4999 42.6 79.3999C42.6 59.2999 59 42.8999 79.1 42.8999V44.3999C59.8 44.3999 44.1 60.0999 44.1 79.3999C44.1 98.6999 59.8 114.4 79.1 114.4C98.4 114.4 114.1 98.6999 114.1 79.3999H115.6C115.7 99.4999 99.3 115.9 79.1 115.9Z" fill="white"/>
<path d="M94.4 80.1001H78.4V54.8H79.9V78.6001H94.4V80.1001Z" fill="white"/>
</svg>
