<svg width="68" height="138" viewBox="0 0 68 138" fill="none" xmlns="http://www.w3.org/2000/svg">
<path d="M34.0001 15.8743C23.9052 15.8743 15.6924 24.0871 15.6924 34.182C15.6924 44.2768 23.9052 52.4897 34.0001 52.4897C44.0949 52.4897 52.3078 44.2768 52.3078 34.182C52.3078 24.0871 44.0949 15.8743 34.0001 15.8743ZM34.0001 47.2589C26.7895 47.2589 20.9232 41.3926 20.9232 34.182C20.9232 26.9713 26.7895 21.105 34.0001 21.105C41.2107 21.105 47.077 26.9713 47.077 34.182C47.077 41.3926 41.2107 47.2589 34.0001 47.2589Z" fill="black"/>
<path d="M34 0.181885C15.2524 0.181885 0 15.4343 0 34.1819C0 46.2845 3.68159 51.138 21.3731 74.4606C24.4441 78.509 27.925 83.0976 31.9077 88.4075C32.4017 89.0661 33.1769 89.4537 34.0002 89.4537C34.8235 89.4537 35.5985 89.0659 36.0925 88.4072C40.0518 83.1258 43.5176 78.5547 46.5755 74.5216C64.3095 51.1311 68 46.2636 68 34.1819C68 15.4343 52.7476 0.181885 34 0.181885ZM42.4074 71.3613C39.896 74.6738 37.1099 78.3486 33.9995 82.4835C30.8678 78.3221 28.0659 74.6283 25.5405 71.2991C8.33157 48.6129 5.23077 44.525 5.23077 34.1819C5.23077 18.3185 18.1366 5.41265 34 5.41265C49.8634 5.41265 62.7692 18.3185 62.7692 34.1819C62.7692 44.5048 59.6604 48.6052 42.4074 71.3613Z" fill="black"/>
<circle cx="34" cy="126.818" r="11" fill="black"/>
</svg>
