<svg width="348" height="40" viewBox="0 0 348 40" fill="none" xmlns="http://www.w3.org/2000/svg">
<path d="M346.148 33.1419C347.193 32.784 347.75 31.6468 347.392 30.6018L341.56 13.5727C341.202 12.5277 340.065 11.9707 339.02 12.3286C337.975 12.6864 337.418 13.8237 337.776 14.8687L342.96 30.0056L327.823 35.1895C326.778 35.5474 326.221 36.6846 326.579 37.7296C326.937 38.7746 328.074 39.3316 329.119 38.9737L346.148 33.1419ZM6.24977 30.8704C7.24762 30.3968 7.67257 29.2039 7.1989 28.206C6.72524 27.2082 5.53234 26.7832 4.53448 27.2569L6.24977 30.8704ZM13.6404 23.294C12.6147 23.704 12.1155 24.8678 12.5255 25.8935C12.9354 26.9191 14.0992 27.4183 15.1249 27.0084L13.6404 23.294ZM24.248 23.6372C25.2932 23.28 25.851 22.1431 25.4937 21.0979C25.1365 20.0527 23.9996 19.495 22.9544 19.8522L24.248 23.6372ZM32.3799 16.8584C31.3205 17.171 30.7151 18.2832 31.0277 19.3426C31.3403 20.402 32.4525 21.0074 33.5119 20.6948L32.3799 16.8584ZM42.9176 18.1093C43.9877 17.8355 44.6332 16.7461 44.3594 15.676C44.0856 14.6059 42.9962 13.9604 41.9261 14.2342L42.9176 18.1093ZM51.5401 11.9395C50.4619 12.1792 49.7821 13.2477 50.0219 14.3259C50.2616 15.4041 51.33 16.0839 52.4083 15.8441L51.5401 11.9395ZM61.9603 13.8631C63.0448 13.6537 63.7542 12.6047 63.5448 11.5202C63.3353 10.4356 62.2864 9.72623 61.2018 9.93567L61.9603 13.8631ZM70.9115 8.18864C69.822 8.37086 69.0866 9.40174 69.2688 10.4912C69.451 11.5806 70.4819 12.3161 71.5714 12.1338L70.9115 8.18864ZM81.2527 10.6289C82.346 10.4714 83.1046 9.45742 82.9471 8.36414C82.7896 7.27085 81.7756 6.51226 80.6823 6.66976L81.2527 10.6289ZM90.4319 5.36846C89.3357 5.50355 88.5565 6.50177 88.6916 7.59805C88.8266 8.69432 89.8249 9.47352 90.9211 9.33844L90.4319 5.36846ZM100.669 8.23167C101.768 8.11724 102.566 7.13387 102.451 6.03524C102.337 4.93662 101.353 4.13876 100.255 4.25319L100.669 8.23167ZM110.036 3.32064C108.936 3.41613 108.121 4.38562 108.216 5.48606C108.312 6.58649 109.281 7.40116 110.382 7.30567L110.036 3.32064ZM120.142 6.53817C121.244 6.46027 122.074 5.50391 121.996 4.40209C121.918 3.30028 120.962 2.47023 119.86 2.54813L120.142 6.53817ZM129.712 1.92595C128.609 1.98748 127.765 2.9314 127.826 4.03425C127.888 5.1371 128.832 5.98127 129.935 5.91974L129.712 1.92595ZM139.705 5.443C140.809 5.39669 141.666 4.46451 141.62 3.36091C141.573 2.25732 140.641 1.40021 139.538 1.44652L139.705 5.443ZM149.365 1.09838C148.261 1.13044 147.392 2.05148 147.424 3.15559C147.456 4.25969 148.377 5.12876 149.481 5.0967L149.365 1.09838ZM159.269 4.87246C160.373 4.85379 161.253 3.94334 161.235 2.83893C161.216 1.73452 160.305 0.854359 159.201 0.873034L159.269 4.87246ZM169.041 0.763327C167.937 0.769403 167.046 1.66975 167.052 2.7743C167.059 3.87885 167.959 4.76934 169.063 4.76327L169.041 0.763327ZM178.884 4.76582C179.989 4.77311 180.89 3.88361 180.897 2.77906C180.905 1.67451 180.015 0.773195 178.911 0.765906L178.884 4.76582ZM188.662 0.895622C187.557 0.873428 186.644 1.75069 186.622 2.85503C186.6 3.95938 187.477 4.87262 188.581 4.89481L188.662 0.895622ZM198.272 5.15722C199.376 5.19493 200.301 4.33059 200.339 3.22666C200.377 2.12273 199.513 1.19726 198.409 1.15955L198.272 5.15722ZM208.147 1.56311C207.044 1.50924 206.106 2.35993 206.052 3.46319C205.998 4.56644 206.849 5.50448 207.952 5.55835L208.147 1.56311ZM217.615 6.10374C218.717 6.17448 219.668 5.33824 219.739 4.23594C219.81 3.13364 218.973 2.1827 217.871 2.11195L217.615 6.10374ZM227.619 2.81565C226.518 2.72719 225.554 3.54804 225.465 4.64906C225.377 5.75009 226.198 6.71435 227.299 6.8028L227.619 2.81565ZM236.965 7.66087C238.065 7.7679 239.043 6.96344 239.15 5.86407C239.257 4.7647 238.452 3.78672 237.353 3.67969L236.965 7.66087ZM247.05 4.70992C245.953 4.58339 244.96 5.37036 244.834 6.46766C244.707 7.56496 245.494 8.55706 246.592 8.68359L247.05 4.70992ZM256.201 9.88225C257.296 10.0293 258.303 9.26115 258.45 8.16642C258.597 7.07169 257.829 6.06498 256.734 5.91788L256.201 9.88225ZM266.411 7.31568C265.319 7.14674 264.297 7.89468 264.128 8.98626C263.959 10.0778 264.707 11.0997 265.799 11.2686L266.411 7.31568ZM275.342 12.8485C276.429 13.0406 277.467 12.3146 277.659 11.2269C277.851 10.1392 277.125 9.10162 276.037 8.90949L275.342 12.8485ZM285.639 10.7176C284.556 10.5006 283.502 11.2027 283.285 12.2857C283.068 13.3688 283.77 14.4227 284.853 14.6397L285.639 10.7176ZM294.328 16.659C295.405 16.9028 296.476 16.2272 296.72 15.1499C296.964 14.0726 296.288 13.0015 295.211 12.7577L294.328 16.659ZM304.721 15.0448C303.651 14.7716 302.562 15.4178 302.289 16.4881C302.016 17.5584 302.662 18.6474 303.732 18.9206L304.721 15.0448ZM313.057 21.4489C314.118 21.7545 315.226 21.1417 315.532 20.0803C315.837 19.0188 315.225 17.9106 314.163 17.605L313.057 21.4489ZM323.514 20.4699C322.463 20.1275 321.334 20.7012 320.992 21.7513C320.65 22.8015 321.223 23.9304 322.273 24.2728L323.514 20.4699ZM331.376 27.446C332.411 27.8323 333.563 27.3065 333.949 26.2717C334.335 25.2368 333.809 24.0848 332.775 23.6986L331.376 27.446ZM341.916 27.3891C340.905 26.945 339.725 27.4049 339.281 28.4162C338.837 29.4276 339.297 30.6075 340.308 31.0516L341.916 27.3891ZM1.92604 33.0225C3.26457 32.3232 4.70394 31.6042 6.24977 30.8704L4.53448 27.2569C2.94316 28.0123 1.45816 28.754 0.0739639 29.4771L1.92604 33.0225ZM15.1249 27.0084C17.9163 25.8927 20.9517 24.7639 24.248 23.6372L22.9544 19.8522C19.5954 21.0003 16.4963 22.1526 13.6404 23.294L15.1249 27.0084ZM33.5119 20.6948C36.4737 19.821 39.6062 18.9566 42.9176 18.1093L41.9261 14.2342C38.5687 15.0932 35.3894 15.9704 32.3799 16.8584L33.5119 20.6948ZM52.4083 15.8441C55.4599 15.1657 58.6423 14.5039 61.9603 13.8631L61.2018 9.93567C57.8479 10.5834 54.6289 11.2527 51.5401 11.9395L52.4083 15.8441ZM71.5714 12.1338C74.6907 11.6121 77.9167 11.1095 81.2527 10.6289L80.6823 6.66976C77.317 7.15459 74.0611 7.66184 70.9115 8.18864L71.5714 12.1338ZM90.9211 9.33844C94.08 8.94919 97.3285 8.57958 100.669 8.23167L100.255 4.25319C96.8896 4.60366 93.6161 4.9761 90.4319 5.36846L90.9211 9.33844ZM110.382 7.30567C113.558 7.03006 116.811 6.77372 120.142 6.53817L119.86 2.54813C116.508 2.78516 113.234 3.04317 110.036 3.32064L110.382 7.30567ZM129.935 5.91974C133.124 5.7418 136.38 5.5825 139.705 5.443L139.538 1.44652C136.195 1.58678 132.92 1.74697 129.712 1.92595L129.935 5.91974ZM149.481 5.0967C152.683 5.00371 155.946 4.92866 159.269 4.87246L159.201 0.873034C155.862 0.929498 152.584 1.00492 149.365 1.09838L149.481 5.0967ZM169.063 4.76327C170.695 4.75429 172.341 4.74976 174 4.74976V0.749756C172.333 0.749756 170.68 0.754312 169.041 0.763327L169.063 4.76327ZM174 4.74976C175.641 4.74976 177.269 4.75516 178.884 4.76582L178.911 0.765906C177.286 0.755186 175.649 0.749756 174 0.749756V4.74976ZM188.581 4.89481C191.866 4.96083 195.096 5.04873 198.272 5.15722L198.409 1.15955C195.214 1.05042 191.965 0.962009 188.662 0.895622L188.581 4.89481ZM207.952 5.55835C211.235 5.71863 214.455 5.90097 217.615 6.10374L217.871 2.11195C214.691 1.90787 211.45 1.72438 208.147 1.56311L207.952 5.55835ZM227.299 6.8028C230.592 7.06738 233.814 7.35409 236.965 7.66087L237.353 3.67969C234.179 3.37073 230.935 3.08203 227.619 2.81565L227.299 6.8028ZM246.592 8.68359C249.879 9.06259 253.082 9.46305 256.201 9.88225L256.734 5.91788C253.589 5.49533 250.362 5.09178 247.05 4.70992L246.592 8.68359ZM265.799 11.2686C269.082 11.7767 272.262 12.3046 275.342 12.8485L276.037 8.90949C272.93 8.36064 269.722 7.82812 266.411 7.31568L265.799 11.2686ZM284.853 14.6397C288.143 15.2988 291.301 15.9738 294.328 16.659L295.211 12.7577C292.151 12.0651 288.961 11.3832 285.639 10.7176L284.853 14.6397ZM303.732 18.9206C307.025 19.7608 310.132 20.6068 313.057 21.4489L314.163 17.605C311.199 16.7517 308.053 15.895 304.721 15.0448L303.732 18.9206ZM322.273 24.2728C325.623 25.365 328.655 26.4305 331.376 27.446L332.775 23.6986C330 22.6631 326.916 21.5792 323.514 20.4699L322.273 24.2728ZM340.308 31.0516C341.968 31.7802 343.403 32.4499 344.62 33.0459L346.38 29.4536C345.11 28.8318 343.624 28.1388 341.916 27.3891L340.308 31.0516Z" fill="black"/>
</svg>
