<svg width="48" height="54" viewBox="0 0 48 54" fill="none" xmlns="http://www.w3.org/2000/svg">
<path d="M38.3 0.699951C25.5 0.699951 12.8 0.699951 0 0.699951C0 3.79995 0 5.49995 0 8.59995C1.4 8.59995 2.70001 8.59995 4.10001 8.59995C4.10001 7.49995 4.10001 6.39995 4.10001 5.29995C4.10001 4.59995 4.10001 4.59995 4.60001 4.59995C14.3 4.59995 24 4.59995 33.7 4.59995C34.2 4.59995 34.2 4.59995 34.2 5.19995C34.2 16 34.2 29.6 34.2 40.4C34.2 41.1 34.2 41.0999 33.7 41.0999C25 41.0999 16.4 41.0999 7.7 41.0999C7.6 41.0999 7.4 41.0999 7.3 41.0999C4.9 41.0999 2.50001 41.0999 0.100006 41.0999C0.100006 42.7999 0.100006 43.2 0.100006 45C0.100006 45.0999 0.100006 45.2 0.100006 45.3V53.4L3.89999 50.8L7.8 53.4V45.3C18 45.3 28.2 45.3 38.4 45.3C38.3 30.4 38.3 15.6 38.3 0.699951Z" fill="#9E9E9E"/>
<path d="M47.6 28.4001C47.5 28.0001 47.4 27.7 47.3 27.3C47.1 26.9 46.9 26.4 46.7 26L46.6 25.9001C46 24.9001 45.1 24.0001 44.1 23.2001C41.8 21.4001 38.6 20.1001 34.5 19.4001C32.2 19.0001 29.7 19.0001 27.1 19.2001C25.5 19.3001 23.9 19.5 22.2 19.8C22.2 19.7 22.1 19.7 22.1 19.6C21.9 19.3 21.9 19.3 21.8 19.1C20.7 16.7 19.7 14.6 18.8 11.8V11.7001C18.6 11.2001 18.4 10.7001 18.3 10.2001C18.2 9.90005 17.9 9.80005 17.6 9.80005C17 9.90005 17.1 9.70005 16.6 10.4001L16 11.1C16.1 11 15.8 11.3 15.8 11.3C13.6 13.6 11.4 15.7001 9.40003 18.2001C5.20003 23.2001 1.80004 28.6 0.30004 35.1C0.20004 35.4 0.10004 35.9 0.30004 36C0.60004 36.1 0.900037 35.6 1.00004 35.3C1.80004 33.9 2.60004 32.5 3.30004 31.1C3.50004 30.8 3.70003 30.5 3.90003 30.2001C4.50003 29.1 4.80003 28.6001 5.70003 27.4001C5.90003 27.3001 6.10004 27.1 6.30004 27C7.80004 26.1 9.40004 25.4001 11.1 24.7001C13 23.9001 15 23.3 17 22.8C17.8 22.6 18.6 22.4001 19.4 22.2001C19.6 22.5001 19.8 22.9 20.2 23.6C20.2 23.7 20.3 23.8 20.4 23.8C20.6 24.1 20.6 24.1 20.7 24.3C22.7 27.1 22.7 26.3 20.1 27.8C18.7 28.6 17.3 29.4 16 30.3C14.7 31.2 13.4 32.1 12.4 33.5V33.6L13.7 33C16.7 31.7001 19.8 30.4 22.8 29.1C23.8 28.7 24.3 28.7 25.1 29.6C27.3 32.2 30 34.3001 32.8 36.3001C33.4 36.7001 34 37 34.6 37.2C34.9 37.3 35.2 37.3 35.5 37.2C35.7 37.2 35.6 37.2 35.8 37.1C36.3 36.8 36.1 36.6001 35.8 36.3001C35.6 36.1001 35.4 36 35.1 35.8C32.2 33.2 30.2 30.7 27.8 28.1C27 27.2 27.5 27.3 28.2 27.1C29.5 26.7 29.8 26.5 31.1 26.1C33.4 25.3 33.4 25.3 33.1 22.6C33.1 22.6 33.1 22.6 33 22.6C30.8 23.3 29.5 23.7 27.3 24.5C26.5 24.8 26 25.2 25.3 24.8C24.7 24.5 24.5 24 24 23.3C23.9 23.2 23.8 23.1001 23.8 22.9001C23.4 22.3001 23.2 21.9001 23.1 21.7001C24.6 21.5001 26.1 21.4001 27.6 21.4001C31.3 21.4001 34.4 22 37.1 23C40.3 24.2 42.6 25.8001 44.1 27.9001C45.2 29.4001 45.6 31.2 45.1 33.1C44 37.2 39.7 40.7001 32.9 43.5C30.9 44.3 28.8 44.9001 26.7 45.4001C26.3 45.5 26 45.5001 25.8 45.3001C24.1 43.9001 21.4 43.5 17.7 44C16.6 44.1 15.5 44.4001 14.4 44.8001C13.3 45.2001 12.8 45.7 13.1 46.1C13.2 46.4 13.6 46.6001 14.1 46.8001C14.8 47.0001 15.5 47.1 16.4 47.2C19.3 47.3 22.3 47 25.4 46.5C26.1 46.4001 26 46.4 26.3 46.7C26.7 47.3 26.9 48.0001 26.9 48.8001C26.9 49.0001 26.9 49.3 26.9 49.5C27.4 48.3 27.3 47.2001 26.7 46.3001V46.2C26.9 46.1 27 46.1 27.2 46.1C29.7 45.4 32.1 44.7 34.5 43.7C37.4 42.5 40 41.1001 42.1 39.4001C46.7 35.5001 48.4 31.9001 47.6 28.4001ZM15.1 21.4001C13.6 21.8001 12.2 22.4 10.8 23C9.80004 23.5 8.80003 23.9 7.90003 24.5C7.90003 24.5 7.80003 24.5001 7.90003 24.4001C10.2 21.6001 12.9 19 15.6 16.6C16.1 16.1 16.4 16.2 16.6 16.8C16.6 16.8 16.6 16.9001 16.7 16.9001C17.2 17.9001 17.7 18.8001 18.3 19.9001C18.4 20.1001 18.5 20.3001 18.6 20.4001C17.3 20.7001 16.2 21.0001 15.1 21.4001ZM24.9 45.6C23 45.8 21.1 46 19.3 46C18.5 46 17.7 45.9001 16.9 45.8001C16.4 45.7001 16.1 45.6001 15.7 45.4001C15.4 45.2001 15.6 45 16.1 44.9001C16.4 44.8001 16.7 44.8 16.9 44.7C20 44.3 22.7 44.5001 24.7 45.3001C24.8 45.3001 24.9 45.4001 25 45.5C24.9 45.6 24.9 45.6 24.9 45.6Z" fill="white"/>
</svg>
