<svg width="26" height="26" viewBox="0 0 26 26" fill="none" xmlns="http://www.w3.org/2000/svg">
<path d="M12.9375 0.100098C6.0375 0.100098 0.4375 5.7001 0.4375 12.6001C0.4375 15.3001 1.33752 17.9001 2.83752 19.9001L1.23755 24.5001L6.03748 23.0001C8.03748 24.3001 10.3375 25.1001 12.9375 25.1001C19.8375 25.1001 25.4375 19.5001 25.4375 12.6001C25.4375 5.7001 19.8375 0.100098 12.9375 0.100098ZM20.1376 17.7001C19.8376 18.5001 18.6375 19.3001 17.7375 19.5001C17.0375 19.6001 16.2375 19.7001 13.3375 18.6001C9.63752 17.1001 7.33757 13.4001 7.13757 13.1001C6.93757 12.9001 5.63757 11.1001 5.63757 9.3001C5.63757 7.5001 6.5375 6.6001 6.9375 6.3001C7.2375 6.0001 7.73755 5.9001 8.23755 5.9001C8.43755 5.9001 8.53757 5.9001 8.63757 5.9001C9.03757 5.9001 9.2375 5.9001 9.4375 6.5001C9.7375 7.2001 10.4375 9.0001 10.5375 9.2001C10.6375 9.4001 10.7376 9.6001 10.6376 9.9001C10.5376 10.1001 10.4375 10.3001 10.2375 10.5001C10.0375 10.7001 9.83755 10.9001 9.73755 11.1001C9.53755 11.3001 9.33757 11.5001 9.63757 11.9001C9.83757 12.3001 10.5376 13.5001 11.6376 14.4001C13.0376 15.6001 14.1375 16.0001 14.5375 16.2001C14.8375 16.3001 15.2375 16.3001 15.4375 16.1001C15.7375 15.8001 16.0375 15.3001 16.4375 14.8001C16.6375 14.4001 17.0375 14.4001 17.3375 14.5001C17.6375 14.6001 19.4375 15.5001 19.8375 15.7001C20.2375 15.9001 20.4375 16.0001 20.5375 16.1001C20.4375 16.1001 20.4376 16.8001 20.1376 17.7001Z" fill="white"/>
</svg>
