<svg width="60" height="60" viewBox="0 0 60 60" fill="none" xmlns="http://www.w3.org/2000/svg">
<circle cx="30" cy="30" r="30" fill="#264F55"/>
<path d="M42.4346 24.7856H26.1527C25.3573 24.7856 24.0293 25.0872 24.0293 27.1336V30.2643H44.5581V27.1336C44.5581 25.0936 43.2301 24.7856 42.4346 24.7856Z" fill="white"/>
<path d="M19.6029 30.9444H16.5043V20H14.4514V41.2152H16.5043V35.7366H43.8781V41.2088H45.931V30.9444H19.6029Z" fill="white"/>
<path d="M19.9235 30.3927C21.5073 30.3927 22.7911 29.1088 22.7911 27.5251C22.7911 25.9413 21.5073 24.6575 19.9235 24.6575C18.3398 24.6575 17.0559 25.9413 17.0559 27.5251C17.0559 29.1088 18.3398 30.3927 19.9235 30.3927Z" fill="white"/>
</svg>
