<svg xmlns="http://www.w3.org/2000/svg" xmlns:xlink="http://www.w3.org/1999/xlink"><symbol id="air" viewBox="0 0 60 60"><g fill="none">
<circle cx="30" cy="30" r="30" fill="#264F55"/>
<path d="M42.2372 17.7628C41.2052 16.7309 39.5269 16.7482 38.5164 17.8011L32.9853 23.5648L19.4874 19.0978L16.6539 21.9314L27.9049 28.8588L22.2119 34.7911L18.561 34.1917L16 36.7528L21.3673 38.6327L23.2472 44L25.8083 41.439L25.2089 37.7881L31.1412 32.0952L38.0686 43.3461L40.9022 40.5126L36.4353 27.0146L42.1989 21.4836C43.2519 20.4731 43.2691 18.7948 42.2372 17.7628Z" fill="white"/>
</g></symbol><symbol id="back" viewBox="0 0 19 32"><g fill="none">
<path d="M16 28.46L3.59998 16.0601L16 3.66016" fill="#264F55"/>
<path d="M16 28.46L3.59998 16.0601L16 3.66016" stroke="white" stroke-width="6" stroke-miterlimit="10" stroke-linecap="round" stroke-linejoin="round"/>
</g></symbol><symbol id="green-circle" viewBox="0 0 35 33"><g fill="none">
<rect x="0.96106" y="0.627441" width="33.5781" height="31.5781" rx="15.7891" fill="#264F55"/>
</g></symbol><symbol id="hotel" viewBox="0 0 60 60"><g fill="none">
<circle cx="30" cy="30" r="30" fill="#264F55"/>
<path d="M42.4346 24.7856H26.1527C25.3573 24.7856 24.0293 25.0872 24.0293 27.1336V30.2643H44.5581V27.1336C44.5581 25.0936 43.2301 24.7856 42.4346 24.7856Z" fill="white"/>
<path d="M19.6029 30.9444H16.5043V20H14.4514V41.2152H16.5043V35.7366H43.8781V41.2088H45.931V30.9444H19.6029Z" fill="white"/>
<path d="M19.9235 30.3927C21.5073 30.3927 22.7911 29.1088 22.7911 27.5251C22.7911 25.9413 21.5073 24.6575 19.9235 24.6575C18.3398 24.6575 17.0559 25.9413 17.0559 27.5251C17.0559 29.1088 18.3398 30.3927 19.9235 30.3927Z" fill="white"/>
</g></symbol><symbol id="next" viewBox="0 0 19 32"><g fill="none">
<path d="M3 3.86035L15.4 16.2603L3 28.6602" fill="#264F55"/>
<path d="M3 3.86035L15.4 16.2603L3 28.6602" stroke="white" stroke-width="6" stroke-miterlimit="10" stroke-linecap="round" stroke-linejoin="round"/>
</g></symbol><symbol id="select-arrow--white-rotated" viewBox="0 0 19 12"><g fill="none">
<path d="M16.9186 9.7317L9.50045 2.15069L1.81724 9.76765" stroke="white" stroke-width="3" stroke-miterlimit="10" stroke-linecap="round" stroke-linejoin="round"/>
</g></symbol><symbol id="select-arrow--white" viewBox="0 0 19 12"><g fill="none">
<path d="M1.8999 2.34985L9.3999 9.84985L16.9999 2.1499" stroke="white" stroke-width="3" stroke-miterlimit="10" stroke-linecap="round" stroke-linejoin="round"/>
</g></symbol><symbol id="select-arrow" viewBox="0 0 19 12"><g fill="none">
<path d="M1.8999 2.34937L9.3999 9.84937L16.9999 2.14941" stroke="#264F55" stroke-width="3" stroke-miterlimit="10" stroke-linecap="round" stroke-linejoin="round"/>
</g></symbol><symbol id="star" viewBox="0 0 29 27">
<path d="M14.6955 2.28633L18.2999 9.73584L18.5425 10.2372L19.0965 10.2949L26.5307 11.0693L20.8132 16.4735L20.4129 16.8518L20.5187 17.3924L22.0115 25.0136L15.1754 21.3204L14.7001 21.0636L14.2248 21.3204L7.42848 24.9921L8.9782 17.7081L9.09307 17.1682L8.69743 16.7833L2.7719 11.0181L10.433 9.99113L10.9634 9.92003L11.1985 9.43921L14.6955 2.28633Z" stroke-width="2"/>
</symbol><symbol id="transport" viewBox="0 0 60 60"><g fill="none">
<circle cx="30" cy="30" r="30" fill="#264F55"/>
<path d="M43.0797 26.7045C43.0589 26.6796 43.0411 26.6554 43.0165 26.6311L41.9301 25.5461C42.8311 25.3346 43.801 24.5535 43.801 23.752C43.801 22.8182 42.5489 22.4869 41.4803 22.4869C40.3629 22.4869 40.2332 23.2792 40.2199 23.8391L37.417 21.0424C36.8476 20.459 35.7676 20 34.9602 20H29.5013H29.5H24.0398C23.2331 20 22.1537 20.459 21.5836 21.0424L18.7813 23.8391C18.7668 23.2792 18.6371 22.4869 17.521 22.4869C16.4511 22.4869 15.1996 22.8182 15.1996 23.752C15.1996 24.5535 16.1702 25.3346 17.0711 25.5461L15.9848 26.6311C15.9601 26.6554 15.943 26.6796 15.9215 26.7045C14.7592 27.7325 14 29.6393 14 31.0229V35.1343C14 36.1322 14.3803 37.0378 14.9946 37.7129V39.3074C14.9946 40.2398 15.7488 41 16.6763 41H18.7099C19.6374 41 20.3909 40.2411 20.3909 39.3074V38.8994H29.5H29.5013H38.6097V39.3074C38.6097 40.2411 39.3626 41 40.2914 41H42.3243C43.2525 41 44.0054 40.2398 44.0054 39.3074V37.7129C44.6204 37.0378 45 36.1322 45 35.1343V31.0229C45.0013 29.6393 44.242 27.7325 43.0797 26.7045ZM22.613 22.2852C23.0072 21.9454 23.6962 21.6874 24.0398 21.6874H29.5H29.5013H34.9615C35.3051 21.6874 35.9941 21.9454 36.3883 22.2852L40.0636 25.9718H29.5013H29.5H18.9383L22.613 22.2852ZM15.261 30.4008C15.261 29.3885 16.0266 28.5667 16.9718 28.5667C17.9164 28.5667 21.0034 30.4421 21.0034 31.4544C21.0034 32.4667 17.9164 32.2323 16.9718 32.2323C16.0266 32.2323 15.261 31.4138 15.261 30.4008ZM20.3916 37.0968H20.0657H19.7399L17.807 37.1C17.2705 36.9272 16.8921 36.7255 16.6245 36.5087C16.4891 36.3994 16.3853 36.2855 16.3043 36.1722C16.2227 36.0576 16.1632 35.945 16.1246 35.8323C15.8842 35.1291 16.3809 34.4828 16.3809 34.4828H19.6798L21.8791 37.0954L20.3916 37.0968ZM34.244 37.0981H29.5013H29.5H24.7572C23.7683 37.0981 22.9654 36.2671 22.9654 35.2443H29.5H29.5013H36.0358C36.0358 36.2684 35.2329 37.0981 34.244 37.0981ZM34.6603 33.9793H29.5013H29.5H24.3409C23.2653 33.9793 22.3922 32.6068 22.3922 30.9142H29.5H29.5013H36.6091C36.6091 32.6075 35.7359 33.9793 34.6603 33.9793ZM42.8773 35.8337C42.838 35.9463 42.7786 36.0589 42.697 36.1728C42.6166 36.2861 42.5128 36.4 42.3768 36.5094C42.1098 36.7261 41.7308 36.9291 41.1943 37.1007L39.2614 37.0974H38.9355H38.6097H37.1209L39.3215 34.4848H42.6198C42.6198 34.4841 43.1171 35.1291 42.8773 35.8337ZM42.0294 32.2323C41.0855 32.2323 37.9985 32.4654 37.9985 31.4544C37.9985 30.4434 41.0855 28.5667 42.0294 28.5667C42.9747 28.5667 43.7403 29.3885 43.7403 30.4008C43.7403 31.4125 42.9747 32.2323 42.0294 32.2323Z" fill="white"/>
</g></symbol></svg>