<svg width="178" height="28" viewBox="0 0 178 28" fill="none" xmlns="http://www.w3.org/2000/svg">
<path d="M14.4 0.799805L18.9 10.1001L28.5 11.1001L21.2 18L23.1001 27.7002L14.4 23L5.70004 27.7002L7.80005 18.2998L0.300049 11.1001L10 9.7998L14.4 0.799805Z" fill="#FFC200"/>
<path d="M51.6 0.799805L56 10.1001L65.7 11.1001L58.4 18L60.3 27.7002L51.6 23L42.8 27.7002L44.9 18.2998L37.5 11.1001L47.1 9.7998L51.6 0.799805Z" fill="#FFC200"/>
<path d="M88.7001 0.799805L93.2001 10.1001L102.8 11.1001L95.5001 18L97.4001 27.7002L88.7001 23L80.0001 27.7002L82.0001 18.2998L74.6001 11.1001L84.3001 9.7998L88.7001 0.799805Z" fill="#FFC200"/>
<path d="M125.9 0.799805L130.3 10.1001L140 11.1001L132.7 18L134.6 27.7002L125.9 23L117.1 27.7002L119.2 18.2998L111.7 11.1001L121.4 9.7998L125.9 0.799805Z" fill="#FFC200"/>
<path d="M163 0.799805L167.5 10.1001L177.1 11.1001L169.8 18L171.7 27.7002L163 23L154.3 27.7002L156.3 18.2998L148.9 11.1001L158.6 9.7998L163 0.799805Z" fill="#FFC200"/>
</svg>
