<svg width="26" height="26" viewBox="0 0 26 26" fill="none" xmlns="http://www.w3.org/2000/svg">
<path d="M15.7375 12.6002C15.7375 13.9002 14.6375 15.0002 13.3375 15.0002C12.0375 15.0002 10.9375 13.9002 10.9375 12.6002C10.9375 11.3002 12.0375 10.2002 13.3375 10.2002C14.6375 10.2002 15.7375 11.2002 15.7375 12.6002Z" fill="white"/>
<path d="M18.9375 8.30005C18.8375 8.00005 18.6375 7.70005 18.4375 7.50005C18.2375 7.30005 17.9376 7.10005 17.6376 7.00005C17.3376 6.90005 17.0375 6.80005 16.3375 6.80005C15.5375 6.80005 15.3375 6.80005 13.4375 6.80005C11.5375 6.80005 11.3375 6.80005 10.5375 6.80005C9.83748 6.80005 9.43755 6.90005 9.23755 7.00005C8.93755 7.10005 8.6375 7.30005 8.4375 7.50005C8.2375 7.70005 8.0375 8.00005 7.9375 8.30005C7.8375 8.60005 7.73755 8.90005 7.73755 9.60005C7.73755 10.4001 7.73755 10.6 7.73755 12.5C7.73755 14.4 7.73755 14.6001 7.73755 15.4001C7.73755 16.1001 7.8375 16.5001 7.9375 16.7001C8.0375 17.0001 8.2375 17.3 8.4375 17.5C8.6375 17.7 8.93755 17.9 9.23755 18C9.53755 18.1 9.83748 18.2001 10.5375 18.2001C11.3375 18.2001 11.5375 18.2001 13.4375 18.2001C15.3375 18.2001 15.5375 18.2001 16.3375 18.2001C17.0375 18.2001 17.4376 18.1 17.6376 18C18.2376 17.8 18.7375 17.3001 19.0375 16.6001C19.1375 16.3001 19.2375 16 19.2375 15.3C19.2375 14.5 19.2375 14.3001 19.2375 12.4001C19.2375 10.5001 19.2375 10.3 19.2375 9.50005C19.1375 9.00005 19.0375 8.60005 18.9375 8.30005ZM13.3375 16.2001C11.3375 16.2001 9.63757 14.6 9.63757 12.5C9.63757 10.4 11.2375 8.80005 13.3375 8.80005C15.3375 8.80005 17.0375 10.4 17.0375 12.5C17.0375 14.6 15.4375 16.2001 13.3375 16.2001ZM17.2375 9.60005C16.7375 9.60005 16.3375 9.20005 16.3375 8.70005C16.3375 8.20005 16.7375 7.80005 17.2375 7.80005C17.7375 7.80005 18.1376 8.20005 18.1376 8.70005C18.0376 9.20005 17.6375 9.60005 17.2375 9.60005Z" fill="white"/>
<path d="M13.3375 0.100098C6.43752 0.100098 0.837524 5.7001 0.837524 12.6001C0.837524 19.5001 6.43752 25.1001 13.3375 25.1001C20.2375 25.1001 25.8375 19.5001 25.8375 12.6001C25.8375 5.7001 20.2375 0.100098 13.3375 0.100098ZM20.5375 15.5001C20.5375 16.3001 20.3375 16.8001 20.2375 17.2001C19.8375 18.2001 19.1376 18.9001 18.1376 19.3001C17.6376 19.5001 17.1375 19.6001 16.4375 19.6001C15.6375 19.6001 15.4375 19.6001 13.4375 19.6001C11.5375 19.6001 11.2375 19.6001 10.4375 19.6001C9.6375 19.6001 9.13755 19.4001 8.73755 19.3001C8.23755 19.1001 7.8375 18.8001 7.4375 18.5001C7.0375 18.1001 6.83757 17.7001 6.63757 17.2001C6.43757 16.7001 6.33752 16.2001 6.33752 15.5001C6.33752 14.7001 6.33752 14.5001 6.33752 12.5001C6.33752 10.5001 6.33752 10.3001 6.33752 9.5001C6.33752 8.7001 6.53757 8.2001 6.63757 7.8001C6.83757 7.3001 7.1375 6.9001 7.4375 6.5001C7.8375 6.1001 8.23755 5.9001 8.73755 5.7001C9.23755 5.5001 9.7375 5.4001 10.4375 5.4001C11.2375 5.4001 11.4375 5.4001 13.4375 5.4001C15.3375 5.4001 15.6375 5.4001 16.4375 5.4001C17.2375 5.4001 17.7376 5.6001 18.1376 5.7001C18.6376 5.9001 19.0375 6.2001 19.4375 6.5001C19.8375 6.9001 20.0375 7.3001 20.2375 7.8001C20.4375 8.3001 20.5375 8.8001 20.5375 9.5001C20.5375 10.3001 20.5375 10.5001 20.5375 12.5001C20.5375 14.5001 20.5375 14.8001 20.5375 15.5001Z" fill="white"/>
</svg>
