<svg width="26" height="25" viewBox="0 0 26 25" fill="none" xmlns="http://www.w3.org/2000/svg">
<path d="M13.3375 25C6.43752 25 0.837524 19.4 0.837524 12.5C0.837524 5.6 6.43752 0.1 13.3375 0C20.2375 0 25.8375 5.6 25.8375 12.5C25.7375 19.4 20.1375 25 13.3375 25ZM13.3375 18.2C15.4375 18.2 17.5376 18.2 19.6376 18.2C20.7376 18.2 21.3375 17.6 21.3375 16.5C21.3375 13.9 21.3375 11.2 21.3375 8.6C21.3375 7.5 20.7376 6.9 19.6376 6.9C15.4376 6.9 11.2375 6.9 7.03748 6.9C5.83748 6.9 5.23755 7.5 5.23755 8.7C5.23755 11.3 5.23755 13.9 5.23755 16.5C5.23755 17.6 5.8375 18.2 6.9375 18.2C9.1375 18.2 11.2375 18.2 13.3375 18.2Z" fill="white"/>
<path d="M20.0375 8.8999C20.0375 9.7999 20.0375 10.6999 20.0375 11.4999C20.0375 13.0999 20.0375 14.6999 20.0375 16.3999C20.0375 16.9999 20.0375 16.9999 19.4375 16.9999C15.3375 16.9999 11.2376 16.9999 7.13757 16.9999C6.83757 16.9999 6.53748 16.9999 6.53748 16.4999C6.53748 14.0999 6.53748 11.5999 6.53748 9.1999C6.53748 9.0999 6.53748 9.0999 6.53748 8.8999C7.43748 9.5999 8.23748 10.1999 9.03748 10.8999C10.2375 11.8999 11.4376 12.7999 12.6376 13.7999C13.1376 14.1999 13.3375 14.1999 13.8375 13.7999C15.7375 12.2999 17.5375 10.7999 19.4375 9.3999C19.6375 9.0999 19.8375 8.9999 20.0375 8.8999Z" fill="white"/>
<path d="M7.83752 8.19995C11.5375 8.19995 15.0375 8.19995 18.7375 8.19995C18.6375 8.29995 18.5375 8.39995 18.4375 8.49995C16.8375 9.79995 15.2376 10.9999 13.6376 12.2999C13.4376 12.3999 13.3376 12.6 13.1376 12.4C11.3376 11 9.63752 9.69995 7.83752 8.19995Z" fill="white"/>
</svg>
