<svg width="60" height="60" viewBox="0 0 60 60" fill="none" xmlns="http://www.w3.org/2000/svg">
<circle cx="30" cy="30" r="30" fill="#264F55"/>
<path d="M43.0797 26.7045C43.0589 26.6796 43.0411 26.6554 43.0165 26.6311L41.9301 25.5461C42.8311 25.3346 43.801 24.5535 43.801 23.752C43.801 22.8182 42.5489 22.4869 41.4803 22.4869C40.3629 22.4869 40.2332 23.2792 40.2199 23.8391L37.417 21.0424C36.8476 20.459 35.7676 20 34.9602 20H29.5013H29.5H24.0398C23.2331 20 22.1537 20.459 21.5836 21.0424L18.7813 23.8391C18.7668 23.2792 18.6371 22.4869 17.521 22.4869C16.4511 22.4869 15.1996 22.8182 15.1996 23.752C15.1996 24.5535 16.1702 25.3346 17.0711 25.5461L15.9848 26.6311C15.9601 26.6554 15.943 26.6796 15.9215 26.7045C14.7592 27.7325 14 29.6393 14 31.0229V35.1343C14 36.1322 14.3803 37.0378 14.9946 37.7129V39.3074C14.9946 40.2398 15.7488 41 16.6763 41H18.7099C19.6374 41 20.3909 40.2411 20.3909 39.3074V38.8994H29.5H29.5013H38.6097V39.3074C38.6097 40.2411 39.3626 41 40.2914 41H42.3243C43.2525 41 44.0054 40.2398 44.0054 39.3074V37.7129C44.6204 37.0378 45 36.1322 45 35.1343V31.0229C45.0013 29.6393 44.242 27.7325 43.0797 26.7045ZM22.613 22.2852C23.0072 21.9454 23.6962 21.6874 24.0398 21.6874H29.5H29.5013H34.9615C35.3051 21.6874 35.9941 21.9454 36.3883 22.2852L40.0636 25.9718H29.5013H29.5H18.9383L22.613 22.2852ZM15.261 30.4008C15.261 29.3885 16.0266 28.5667 16.9718 28.5667C17.9164 28.5667 21.0034 30.4421 21.0034 31.4544C21.0034 32.4667 17.9164 32.2323 16.9718 32.2323C16.0266 32.2323 15.261 31.4138 15.261 30.4008ZM20.3916 37.0968H20.0657H19.7399L17.807 37.1C17.2705 36.9272 16.8921 36.7255 16.6245 36.5087C16.4891 36.3994 16.3853 36.2855 16.3043 36.1722C16.2227 36.0576 16.1632 35.945 16.1246 35.8323C15.8842 35.1291 16.3809 34.4828 16.3809 34.4828H19.6798L21.8791 37.0954L20.3916 37.0968ZM34.244 37.0981H29.5013H29.5H24.7572C23.7683 37.0981 22.9654 36.2671 22.9654 35.2443H29.5H29.5013H36.0358C36.0358 36.2684 35.2329 37.0981 34.244 37.0981ZM34.6603 33.9793H29.5013H29.5H24.3409C23.2653 33.9793 22.3922 32.6068 22.3922 30.9142H29.5H29.5013H36.6091C36.6091 32.6075 35.7359 33.9793 34.6603 33.9793ZM42.8773 35.8337C42.838 35.9463 42.7786 36.0589 42.697 36.1728C42.6166 36.2861 42.5128 36.4 42.3768 36.5094C42.1098 36.7261 41.7308 36.9291 41.1943 37.1007L39.2614 37.0974H38.9355H38.6097H37.1209L39.3215 34.4848H42.6198C42.6198 34.4841 43.1171 35.1291 42.8773 35.8337ZM42.0294 32.2323C41.0855 32.2323 37.9985 32.4654 37.9985 31.4544C37.9985 30.4434 41.0855 28.5667 42.0294 28.5667C42.9747 28.5667 43.7403 29.3885 43.7403 30.4008C43.7403 31.4125 42.9747 32.2323 42.0294 32.2323Z" fill="white"/>
</svg>
